<?xml version="1.0" encoding="utf-8"?>
<!-- Generator: Adobe Illustrator 15.1.0, SVG Export Plug-In . SVG Version: 6.00 Build 0)  -->
<!DOCTYPE svg PUBLIC "-//W3C//DTD SVG 1.1//EN" "http://www.w3.org/Graphics/SVG/1.1/DTD/svg11.dtd">
<svg version="1.1" id="Layer_1" xmlns="http://www.w3.org/2000/svg" xmlns:xlink="http://www.w3.org/1999/xlink" x="0px" y="0px"
	 width="612px" height="792px" viewBox="0 0 612 792" enable-background="new 0 0 612 792" xml:space="preserve">
<path fill-rule="evenodd" clip-rule="evenodd" stroke="#000000" stroke-width="2.9999" stroke-linecap="round" stroke-linejoin="round" stroke-miterlimit="22.9256" d="
	M313.826,36.5c27.61,0,49.995,22.384,49.995,49.995c0,45.505-40.592,42.328-44.734,55.621c-2.32,7.445,0.621,20.517,15.815,57.932
	s42.644,99.173,63.229,148.352c20.587,49.18,34.313,85.777,43.461,118.29c9.15,32.514,13.726,60.943,14.868,94.108
	c1.143,33.166-1.146,71.07-13.075,103.255c-11.928,32.187-33.493,58.654-58.98,74.177s-54.894,20.1-81.361,17.648
	c-26.468-2.449-49.995-11.926-69.438-28.265c-19.443-16.338-34.801-39.538-44.278-68.948c-9.476-29.408-13.07-65.026-15.521-101.134
	s-3.757-72.706-7.678-108.977c-3.922-36.271-10.457-72.217-9.804-80.06c0.653-7.842,8.496,12.418,23.201,40.356
	c14.705,27.939,36.271,63.557,52.283,92.476c16.012,28.92,26.469,51.14,31.206,61.76c4.738,10.62,3.758,9.64-2.614,5.719
	c-6.371-3.922-18.136-10.783-27.938-15.194c-9.802-4.412-17.645-6.373-21.73-5.72c-4.084,0.654-4.411,3.922-3.267,17.482
	c1.144,13.562,3.757,37.415,8.822,58.002c5.065,20.586,12.58,37.904,25.324,51.792c12.745,13.889,30.717,24.345,53.59,28.592
	s50.646,2.285,72.293-13.81c21.647-16.095,37.168-46.321,44.194-78.835c7.025-32.512,5.559-67.311-0.566-101.049
	c-6.126-33.736-16.91-66.413-31.777-107.586c-14.868-41.172-33.82-90.841-51.141-135.281
	c-15.234-39.092-62.502-142.063-64.373-180.703C262.494,58.917,286.214,36.5,313.826,36.5L313.826,36.5z M313.826,65.909
	c11.369,0,20.586,9.217,20.586,20.586c0,11.37-9.217,20.587-20.586,20.587c-11.37,0-20.587-9.217-20.587-20.587
	C293.239,75.126,302.456,65.909,313.826,65.909z"/>
</svg>
